HIERARCHY
ROOT Hips
{
	OFFSET 0.00000 0.00000 0.00000
	CHANNELS 6 Xposition Yposition Zposition Zrotation Yrotation Xrotation 
	JOINT LHipJoint
	{
		OFFSET 0 0 0
		CHANNELS 3 Zrotation Yrotation Xrotation
		JOINT LeftUpLeg
		{
			OFFSET 1.58895 -1.83665 0.71753
			CHANNELS 3 Zrotation Yrotation Xrotation
			JOINT LeftLeg
			{
				OFFSET 2.50528 -6.88321 0.00000
				CHANNELS 3 Zrotation Yrotation Xrotation
				JOINT LeftFoot
				{
					OFFSET 2.63244 -7.23257 0.00000
					CHANNELS 3 Zrotation Yrotation Xrotation
					JOINT LeftToeBase
					{
						OFFSET 0.23691 -0.65090 1.72750
						CHANNELS 3 Zrotation Yrotation Xrotation
						End Site
						{
							OFFSET 0.00000 -0.00000 0.92561
						}
					}
				}
			}
		}
	}
	JOINT RHipJoint
	{
		OFFSET 0 0 0
		CHANNELS 3 Zrotation Yrotation Xrotation
		JOINT RightUpLeg
		{
			OFFSET -1.51435 -1.83665 0.71753
			CHANNELS 3 Zrotation Yrotation Xrotation
			JOINT RightLeg
			{
				OFFSET -2.54551 -6.99375 0.00000
				CHANNELS 3 Zrotation Yrotation Xrotation
				JOINT RightFoot
				{
					OFFSET -2.66027 -7.30903 0.00000
					CHANNELS 3 Zrotation Yrotation Xrotation
					JOINT RightToeBase
					{
						OFFSET -0.22981 -0.63138 2.03959
						CHANNELS 3 Zrotation Yrotation Xrotation
						End Site
						{
							OFFSET -0.00000 -0.00000 1.07060
						}
					}
				}
			}
		}
	}
	JOINT LowerBack
	{
		OFFSET 0 0 0
		CHANNELS 3 Zrotation Yrotation Xrotation
		JOINT Spine
		{
			OFFSET -0.02651 1.86275 -0.11152
			CHANNELS 3 Zrotation Yrotation Xrotation
			JOINT Spine1
			{
				OFFSET 0.01019 1.86224 0.04087
				CHANNELS 3 Zrotation Yrotation Xrotation
				JOINT Neck
				{
					OFFSET 0 0 0
					CHANNELS 3 Zrotation Yrotation Xrotation
					JOINT Neck1
					{
						OFFSET -0.01926 1.80512 0.08867
						CHANNELS 3 Zrotation Yrotation Xrotation
						JOINT Head
						{
							OFFSET 0.05516 1.76451 -0.38475
							CHANNELS 3 Zrotation Yrotation Xrotation
							End Site
							{
								OFFSET 0.01592 1.82587 -0.14001
							}
						}
					}
				}
				JOINT LeftShoulder
				{
					OFFSET 0 0 0
					CHANNELS 3 Zrotation Yrotation Xrotation
					JOINT LeftArm
					{
						OFFSET 3.47116 1.51376 0.14491
						CHANNELS 3 Zrotation Yrotation Xrotation
						JOINT LeftForeArm
						{
							OFFSET 4.78095 -0.00000 0.00000
							CHANNELS 3 Zrotation Yrotation Xrotation
							JOINT LeftHand
							{
								OFFSET 3.58615 -0.00000 -0.00000
								CHANNELS 3 Zrotation Yrotation Xrotation
								JOINT LeftFingerBase
								{
									OFFSET 0 0 0
									CHANNELS 3 Zrotation Yrotation Xrotation
									JOINT LeftHandIndex1
									{
										OFFSET 0.65981 -0.00000 0.00000
										CHANNELS 3 Zrotation Yrotation Xrotation
										End Site
										{
											OFFSET 0.53196 -0.00000 0.00000
										}
									}
								}
								JOINT LThumb
								{
									OFFSET 0 0 0
									CHANNELS 3 Zrotation Yrotation Xrotation
									End Site
									{
										OFFSET 0.54008 -0.00000 0.54008
									}
								}
							}
						}
					}
				}
				JOINT RightShoulder
				{
					OFFSET 0 0 0
					CHANNELS 3 Zrotation Yrotation Xrotation
					JOINT RightArm
					{
						OFFSET -3.31725 1.61216 0.35156
						CHANNELS 3 Zrotation Yrotation Xrotation
						JOINT RightForeArm
						{
							OFFSET -4.48913 -0.00000 0.00000
							CHANNELS 3 Zrotation Yrotation Xrotation
							JOINT RightHand
							{
								OFFSET -3.70510 -0.00000 0.00000
								CHANNELS 3 Zrotation Yrotation Xrotation
								JOINT RightFingerBase
								{
									OFFSET 0 0 0
									CHANNELS 3 Zrotation Yrotation Xrotation
									JOINT RightHandIndex1
									{
										OFFSET -0.44914 -0.00000 0.00000
										CHANNELS 3 Zrotation Yrotation Xrotation
										End Site
										{
											OFFSET -0.36211 -0.00000 0.00000
										}
									}
								}
								JOINT RThumb
								{
									OFFSET 0 0 0
									CHANNELS 3 Zrotation Yrotation Xrotation
									End Site
									{
										OFFSET -0.36763 -0.00000 0.36763
									}
								}
							}
						}
					}
				}
			}
		}
	}
}
MOTION
Frames: 17
Frame Time: .0083333
-0.7304 18.6669 5.9578 0 0 0 0 0 0 -21 0 0 0 0 0 0 0 0 0 0 0 0 0 0 21 0 0 0 0 0 0 0 0 0 0 0 0 0 0 0 0 0 0 0 0 0 0 -16 0 0 21 0 0 11 0 0 0 -8 0 0 0 0 0 0 0 0 0 0 0 0 0 0 0 0 0 0 0 0 8 0 0 0 0 0 0 0 0 0 0 0 0 0 0 0 0 0
-0.7304 18.6669 5.9578 -2.7286 -3.2844 0.3090 0.0000 0.0000 0.0000 -12.5117 -8.8696 -0.2614 1.3586 7.3779 20.8399 1.7629 5.5599 -27.5943 8.2345 -16.2891 -53.4031 0.0000 0.0000 0.0000 17.3286 1.4047 9.5361 0.0000 0.0000 -0.0000 -1.1064 -5.3304 -22.4654 -0.0929 1.9656 -5.4105 1.8247 0.5021 0.6145 0.5700 0.7032 -1.2116 -0.4522 0.3327 -1.5708 -1.2026 -1.2725 -11.5543 3.5664 -2.3865 22.6019 1.1519 -0.8478 9.0412 -0.0000 -0.0000 0.0000 0.0000 0.0000 -0.0000 0.0000 0.0000 -0.0000 -0.0000 -0.0000 0.0000 -0.0000 -0.0000 0.0000 -0.0000 0.0000 0.0000 0.0000 0.0000 0.0000 -0.0000 -0.0000 0.0000 89.4094 -16.2032 26.5313 -23.1190 34.2187 -7.2051 0.0000 0.0000 23.8955 -5.9811 -26.7279 2.6979 7.1250 -0.0000 -0.0000 25.5024 -54.9520 -6.5484
-0.7309 18.6684 5.9546 -2.8089 -3.2905 0.3744 0.0000 0.0000 0.0000 -12.3993 -8.8922 -0.3782 1.3667 7.3990 20.9031 1.7371 5.6265 -27.4535 8.3256 -16.3536 -53.7271 0.0000 0.0000 0.0000 17.4223 1.4369 9.4562 0.0000 0.0000 -0.0000 -1.1023 -5.3518 -22.4432 -0.0883 1.9168 -5.2757 1.8863 0.4973 0.5791 0.5954 0.6980 -1.2662 -0.4606 0.3289 -1.6067 -1.2878 -1.2435 -11.4556 3.6694 -2.3537 22.6377 1.2058 -0.8295 9.0364 0.0000 0.0000 0.0000 0.0000 0.0000 -0.0000 0.0000 0.0000 -0.0000 -0.0000 -0.0000 0.0000 -0.0000 -0.0000 0.0000 -0.0000 0.0000 0.0000 0.0000 0.0000 0.0000 0.0000 0.0000 0.0000 89.0664 -17.1991 27.0541 -23.8174 34.9706 -7.6017 0.0000 0.0000 23.2781 -6.0693 -26.6984 2.7351 7.1250 -0.0000 -0.0000 25.3976 -54.9424 -6.5127
-0.7312 18.6693 5.9536 -2.8070 -3.3050 0.3797 0.0000 0.0000 0.0000 -12.3923 -8.8435 -0.4126 1.3680 7.4025 20.9134 1.7318 5.6154 -27.4107 8.3497 -16.3706 -53.8129 0.0000 0.0000 0.0000 17.4195 1.4546 9.4493 0.0000 -0.0000 0.0000 -1.1007 -5.3608 -22.4349 -0.0900 1.9350 -5.3260 2.0117 0.7526 0.6058 0.2740 1.0342 -1.1173 -0.8654 0.4957 -1.4536 -0.4022 -1.4634 -12.0256 3.4962 -2.8153 22.7062 0.9422 -0.9806 9.1673 0.0000 -0.0000 0.0000 0.0000 0.0000 -0.0000 0.0000 0.0000 -0.0000 -0.0000 -0.0000 0.0000 -0.0000 -0.0000 0.0000 -0.0000 0.0000 0.0000 0.0000 0.0000 0.0000 0.0000 -0.0000 0.0000 89.8710 -17.1805 26.2079 -24.0219 35.1874 -7.7191 0.0000 0.0000 23.3148 -6.2024 -26.5230 2.7784 7.1250 -0.0000 -0.0000 25.1528 -54.8099 -6.3602
-0.7311 18.6693 5.9544 -2.7944 -3.3196 0.3665 0.0000 0.0000 0.0000 -12.4163 -8.8465 -0.3470 1.3586 7.3781 20.8405 1.7422 5.6057 -27.4774 8.2973 -16.3336 -53.6265 0.0000 0.0000 0.0000 17.4028 1.4643 9.4676 0.0000 -0.0000 0.0000 -1.0993 -5.3612 -22.4231 -0.0869 1.9012 -5.2328 2.0203 0.7675 0.6119 0.2457 1.0539 -1.1078 -0.8994 0.5054 -1.4460 -0.3290 -1.4783 -12.0305 3.4347 -2.8378 22.7145 0.9062 -0.9913 9.1697 -0.0000 -0.0000 0.0000 0.0000 0.0000 -0.0000 0.0000 0.0000 -0.0000 -0.0000 -0.0000 0.0000 -0.0000 -0.0000 0.0000 -0.0000 0.0000 0.0000 0.0000 0.0000 0.0000 -0.0000 -0.0000 0.0000 89.9180 -17.1888 26.1699 -24.0186 35.1840 -7.7173 0.0000 0.0000 23.3377 -6.3462 -26.3893 2.8300 7.1250 -0.0000 -0.0000 24.9260 -54.7166 -6.2391
-0.7304 18.6686 5.9589 -2.8920 -3.2952 0.3934 0.0000 0.0000 0.0000 -12.3062 -8.8375 -0.3022 1.3446 7.3415 20.7312 1.7400 5.5897 -27.4532 8.2724 -16.3160 -53.5381 0.0000 0.0000 0.0000 17.5024 1.4415 9.4573 0.0000 0.0000 -0.0000 -1.1039 -5.3231 -22.4394 -0.0774 1.7952 -4.9399 2.1543 0.7611 0.5152 0.2502 1.0443 -1.0876 -0.9681 0.5001 -1.3691 -0.2931 -1.4738 -12.0601 3.3984 -2.8321 22.7452 0.8883 -0.9887 9.1847 -0.0000 0.0000 0.0000 0.0000 0.0000 -0.0000 0.0000 0.0000 -0.0000 -0.0000 -0.0000 0.0000 -0.0000 -0.0000 0.0000 -0.0000 0.0000 0.0000 0.0000 0.0000 0.0000 -0.0000 0.0000 0.0000 89.9525 -16.8465 26.2545 -23.7098 34.8559 -7.5401 0.0000 0.0000 23.2469 -6.7285 -26.3134 2.9937 7.1250 -0.0000 -0.0000 24.5072 -54.7201 -6.1265
-0.7905 18.6971 5.8936 -2.3326 -2.0042 1.5461 0.0000 0.0000 0.0000 -11.9563 -7.7809 -2.7554 1.3280 7.2978 20.6007 1.5099 4.0521 -24.9754 8.4479 -16.4390 -54.1605 0.0000 0.0000 0.0000 17.1085 0.5767 7.8454 0.0000 0.0000 -0.0000 -1.1113 -5.2213 -22.4398 -0.0500 1.4431 -3.9690 0.6936 0.3472 0.4789 0.2600 0.4786 -1.7420 -0.1330 0.2299 -2.0493 -0.3397 -1.4800 -11.9963 3.4526 -2.8464 22.8237 0.9138 -0.9932 9.2018 0.0000 -0.0000 0.0000 0.0000 0.0000 -0.0000 0.0000 0.0000 -0.0000 -0.0000 -0.0000 0.0000 -0.0000 -0.0000 0.0000 -0.0000 0.0000 0.0000 0.0000 0.0000 0.0000 0.0000 -0.0000 0.0000 90.1625 -16.0601 26.1020 -22.8907 33.9690 -7.0771 0.0000 0.0000 23.3887 -7.3750 -26.1187 3.2612 7.1250 -0.0000 -0.0000 23.7558 -54.6651 -5.8892
-0.7691 18.6825 5.9566 -2.2583 -3.0365 0.9002 0.0000 0.0000 0.0000 -12.6532 -8.5658 -1.0652 1.3137 7.2599 20.4877 1.6659 5.2938 -26.7730 8.3252 -16.3533 -53.7259 0.0000 0.0000 0.0000 16.9163 1.3452 8.8569 0.0000 0.0000 -0.0000 -1.1120 -5.2449 -22.4600 -0.0721 1.7317 -4.7648 1.0833 0.7286 0.4224 0.0889 0.9881 -1.5448 -0.5352 0.4785 -1.8021 -0.3922 -1.5113 -11.8443 3.5727 -2.9113 22.9369 0.9578 -1.0153 9.2169 -0.0000 -0.0000 0.0000 0.0000 0.0000 -0.0000 0.0000 0.0000 -0.0000 -0.0000 -0.0000 0.0000 -0.0000 -0.0000 0.0000 -0.0000 0.0000 0.0000 0.0000 0.0000 0.0000 -0.0000 -0.0000 0.0000 90.2160 -16.3532 26.1642 -22.8345 33.9074 -7.0458 0.0000 0.0000 23.2119 -7.7670 -25.9260 3.4127 7.1250 -0.0000 -0.0000 23.2541 -54.5628 -5.6948
-0.7591 18.6769 5.9761 -2.2533 -3.3798 0.6769 0.0000 0.0000 0.0000 -12.9011 -8.8716 -0.4246 1.2987 7.2201 20.3690 1.7187 5.7651 -27.4044 8.2792 -16.3208 -53.5623 0.0000 0.0000 0.0000 16.8669 1.6014 9.1990 0.0000 -0.0000 0.0000 -1.1180 -5.2108 -22.4904 -0.0721 1.7328 -4.7679 1.3080 0.8584 0.4895 0.0150 1.1638 -1.5097 -0.7409 0.5627 -1.7950 -0.3652 -1.5281 -11.7409 3.5780 -2.9418 22.9502 0.9523 -1.0277 9.2025 0.0000 -0.0000 0.0000 0.0000 0.0000 -0.0000 0.0000 0.0000 -0.0000 -0.0000 -0.0000 0.0000 -0.0000 -0.0000 0.0000 -0.0000 0.0000 0.0000 0.0000 0.0000 0.0000 0.0000 -0.0000 0.0000 90.2752 -16.5228 26.1061 -22.8531 33.9278 -7.0561 0.0000 0.0000 23.2069 -7.8181 -25.9239 3.4352 7.1250 -0.0000 -0.0000 23.2031 -54.5705 -5.6858
-0.7591 18.6764 5.9759 -2.2196 -3.3798 0.6695 0.0000 0.0000 0.0000 -12.9397 -8.8568 -0.4048 1.2941 7.2077 20.3320 1.7116 5.7970 -27.3729 8.2912 -16.3293 -53.6048 0.0000 0.0000 0.0000 16.8306 1.5990 9.2055 0.0000 -0.0000 0.0000 -1.1213 -5.1772 -22.4982 -0.0652 1.6471 -4.5313 1.2741 0.8555 0.5258 0.0077 1.1600 -1.5200 -0.7300 0.5609 -1.8266 -0.3477 -1.5356 -11.7003 3.5370 -2.9449 22.9267 0.9351 -1.0330 9.1858 -0.0000 -0.0000 0.0000 0.0000 0.0000 -0.0000 0.0000 0.0000 -0.0000 -0.0000 -0.0000 0.0000 -0.0000 -0.0000 0.0000 -0.0000 0.0000 0.0000 0.0000 0.0000 0.0000 -0.0000 -0.0000 0.0000 90.2590 -16.5487 26.1171 -22.8625 33.9382 -7.0614 0.0000 0.0000 23.1739 -7.7410 -26.0306 3.4139 7.1250 -0.0000 -0.0000 23.3448 -54.6535 -5.7719
-0.7688 18.6818 5.9566 -2.1867 -3.0542 0.8645 0.0000 0.0000 0.0000 -12.7452 -8.5243 -0.9452 1.2927 7.2039 20.3208 1.6513 5.3761 -26.7150 8.3433 -16.3661 -53.7901 0.0000 0.0000 0.0000 16.8361 1.3507 8.8969 0.0000 0.0000 -0.0000 -1.1183 -5.1943 -22.4830 -0.0624 1.6113 -4.4327 1.0989 0.7521 0.6511 0.0090 1.0221 -1.6523 -0.6309 0.4928 -2.0387 -0.3124 -1.5434 -11.6875 3.5188 -2.9596 22.9454 0.9213 -1.0387 9.1895 0.0000 0.0000 0.0000 0.0000 0.0000 -0.0000 0.0000 0.0000 -0.0000 -0.0000 -0.0000 0.0000 -0.0000 -0.0000 0.0000 -0.0000 0.0000 0.0000 0.0000 0.0000 0.0000 0.0000 0.0000 0.0000 90.3029 -16.5769 26.0801 -22.8707 33.9471 -7.0659 0.0000 0.0000 23.1787 -7.7624 -26.0209 3.4223 7.1250 -0.0000 -0.0000 23.3180 -54.6487 -5.7619
-0.7966 18.6970 5.9003 -2.1088 -2.0903 1.4734 0.0000 0.0000 0.0000 -12.2151 -7.7010 -2.5101 1.2921 7.2023 20.3162 1.5017 4.1494 -24.9636 8.4500 -16.4404 -54.1677 0.0000 0.0000 0.0000 16.8747 0.6265 7.9533 0.0000 0.0000 -0.0000 -1.1143 -5.2069 -22.4568 -0.0560 1.5276 -4.2017 0.6089 0.4264 0.9128 0.0545 0.5836 -2.0060 -0.3035 0.2796 -2.5627 -0.2618 -1.5398 -11.6941 3.4968 -2.9609 22.9566 0.9051 -1.0371 9.1936 -0.0000 -0.0000 0.0000 0.0000 0.0000 -0.0000 0.0000 0.0000 -0.0000 -0.0000 -0.0000 0.0000 -0.0000 -0.0000 0.0000 -0.0000 0.0000 0.0000 0.0000 0.0000 0.0000 -0.0000 -0.0000 0.0000 90.3424 -16.5594 26.0596 -22.8593 33.9346 -7.0596 0.0000 0.0000 23.2083 -7.8885 -25.9256 3.4666 7.1250 -0.0000 -0.0000 23.1358 -54.5851 -5.6763
-0.7968 18.6973 5.9005 -2.1402 -2.0973 1.5095 0.0000 0.0000 0.0000 -12.1726 -7.7000 -2.5430 1.2911 7.1997 20.3085 1.5022 4.1521 -24.9685 8.4424 -16.4352 -54.1408 0.0000 0.0000 0.0000 16.9114 0.6465 7.9150 0.0000 0.0000 -0.0000 -1.1065 -5.2593 -22.4223 -0.0625 1.6133 -4.4381 0.6394 0.4234 0.8894 0.0617 0.5803 -2.0166 -0.3130 0.2775 -2.5603 -0.2683 -1.5466 -11.6614 3.4958 -2.9682 22.9483 0.9052 -1.0417 9.1848 0.0000 0.0000 0.0000 0.0000 0.0000 -0.0000 0.0000 0.0000 -0.0000 -0.0000 -0.0000 0.0000 -0.0000 -0.0000 0.0000 -0.0000 0.0000 0.0000 0.0000 0.0000 0.0000 0.0000 0.0000 0.0000 90.3299 -16.5597 26.0714 -22.8458 33.9197 -7.0520 0.0000 0.0000 23.2143 -7.9563 -25.8308 3.4848 7.1250 -0.0000 -0.0000 23.0110 -54.5110 -5.6006
-0.7976 18.6972 5.9003 -2.1694 -2.1076 1.5308 0.0000 0.0000 0.0000 -12.1326 -7.6726 -2.5678 1.2900 7.1967 20.2996 1.4964 4.1708 -24.9350 8.4473 -16.4386 -54.1582 0.0000 0.0000 0.0000 16.9496 0.6642 7.8941 0.0000 0.0000 -0.0000 -1.1033 -5.2794 -22.4073 -0.0624 1.6123 -4.4352 0.6545 0.4268 0.8978 0.0712 0.5855 -2.0336 -0.3119 0.2797 -2.5824 -0.3476 -1.4530 -11.6769 3.5600 -2.8389 23.0482 0.9557 -0.9793 9.2216 0.0000 -0.0000 0.0000 0.0000 0.0000 -0.0000 0.0000 0.0000 -0.0000 -0.0000 -0.0000 0.0000 -0.0000 -0.0000 0.0000 -0.0000 0.0000 0.0000 0.0000 0.0000 0.0000 0.0000 -0.0000 0.0000 90.3216 -16.5923 26.0922 -22.8503 33.9248 -7.0546 0.0000 0.0000 23.1927 -7.9777 -25.8533 3.4971 7.1250 -0.0000 -0.0000 23.0041 -54.5356 -5.6129
-0.7980 18.6971 5.8999 -2.1393 -2.1177 1.5357 0.0000 0.0000 0.0000 -12.1701 -7.6968 -2.5663 1.2910 7.1992 20.3069 1.4960 4.1933 -24.9432 8.4450 -16.4370 -54.1503 0.0000 0.0000 0.0000 16.9164 0.6750 7.8908 0.0000 0.0000 -0.0000 -1.1094 -5.2491 -22.4410 -0.0608 1.5909 -4.3763 0.6210 0.4233 0.9005 0.0539 0.5797 -2.0271 -0.3108 0.2774 -2.5775 -0.4529 -1.2483 -11.8068 3.6548 -2.5602 23.2649 1.0385 -0.8432 9.3177 0.0000 0.0000 0.0000 0.0000 0.0000 -0.0000 0.0000 0.0000 -0.0000 -0.0000 -0.0000 0.0000 -0.0000 -0.0000 0.0000 -0.0000 0.0000 0.0000 0.0000 0.0000 0.0000 0.0000 0.0000 0.0000 90.3292 -16.6000 26.1239 -22.8622 33.9378 -7.0612 0.0000 0.0000 23.1915 -7.9873 -25.8803 3.5048 7.1250 -0.0000 -0.0000 23.0114 -54.5622 -5.6301
-0.7987 18.6966 5.9000 -2.1349 -2.1373 1.5240 0.0000 0.0000 0.0000 -12.1795 -7.6981 -2.5532 1.2916 7.2010 20.3122 1.4968 4.2304 -24.9689 8.4618 -16.4486 -54.2094 0.0000 0.0000 0.0000 16.9142 0.6894 7.9098 0.0000 0.0000 -0.0000 -1.1134 -5.2313 -22.4642 -0.0589 1.5663 -4.3086 0.5941 0.4170 0.9242 0.0542 0.5708 -2.0151 -0.2953 0.2735 -2.5789 -0.4089 -1.2331 -11.8424 3.5993 -2.5362 23.2880 1.0147 -0.8334 9.3306 -0.0000 0.0000 0.0000 0.0000 0.0000 -0.0000 0.0000 0.0000 -0.0000 -0.0000 -0.0000 0.0000 -0.0000 -0.0000 0.0000 -0.0000 0.0000 0.0000 0.0000 0.0000 0.0000 -0.0000 0.0000 0.0000 90.3190 -16.5930 26.1535 -22.8553 33.9302 -7.0574 0.0000 0.0000 23.2379 -7.9440 -25.7956 3.4750 7.1250 -0.0000 -0.0000 23.0012 -54.4764 -5.5782
-0.8001 18.6966 5.9004 -2.1691 -2.1529 1.5228 0.0000 0.0000 0.0000 -12.1343 -7.6498 -2.5670 1.2912 7.1999 20.3088 1.4920 4.2607 -24.9483 8.4876 -16.4664 -54.3005 0.0000 0.0000 0.0000 16.9596 0.7040 7.9165 0.0000 0.0000 -0.0000 -1.1118 -5.2336 -22.4515 -0.0578 1.5514 -4.2674 0.5913 0.4151 0.9525 0.0783 0.5690 -2.0191 -0.2691 0.2728 -2.5992 -0.3312 -1.3171 -11.7876 3.4949 -2.6426 23.2091 0.9532 -0.8896 9.2927 0.0000 -0.0000 0.0000 0.0000 0.0000 -0.0000 0.0000 0.0000 -0.0000 -0.0000 -0.0000 0.0000 -0.0000 -0.0000 0.0000 -0.0000 0.0000 0.0000 0.0000 0.0000 0.0000 0.0000 -0.0000 0.0000 90.2915 -16.5963 26.1746 -22.8443 33.9181 -7.0512 0.0000 0.0000 23.2865 -7.8540 -25.7927 3.4348 7.1250 -0.0000 -0.0000 23.0868 -54.4570 -5.5895
